<svg xmlns="http://www.w3.org/2000/svg" xmlns:xlink="http://www.w3.org/1999/xlink" width="500" zoomAndPan="magnify" viewBox="0 0 375 374.999991" height="500" preserveAspectRatio="xMidYMid meet" version="1.2"><defs/><g id="9e489cc946"><g style="fill:#000000;fill-opacity:0.302;"><g transform="translate(35.55543, 294.543981)"><path style="stroke:none" d="M 125.578125 -41.734375 L 47.859375 -211.09375 L 47.859375 -76.609375 C 47.859375 -64.242188 49.21875 -56.515625 51.9375 -53.421875 C 55.519531 -49.335938 61.269531 -47.296875 69.1875 -47.296875 L 76.421875 -47.296875 L 76.421875 -41.734375 L 6.3125 -41.734375 L 6.3125 -47.296875 L 13.359375 -47.296875 C 21.890625 -47.296875 27.945312 -49.832031 31.53125 -54.90625 C 33.757812 -58.125 34.875 -65.359375 34.875 -76.609375 L 34.875 -208.125 C 34.875 -217.019531 33.882812 -223.445312 31.90625 -227.40625 C 30.414062 -230.25 27.816406 -232.628906 24.109375 -234.546875 C 20.398438 -236.460938 14.46875 -237.421875 6.3125 -237.421875 L 6.3125 -243 L 63.25 -243 L 136.34375 -85.515625 L 208.125 -243 L 265.0625 -243 L 265.0625 -237.421875 L 258.203125 -237.421875 C 249.546875 -237.421875 243.425781 -234.890625 239.84375 -229.828125 C 237.738281 -226.609375 236.6875 -219.375 236.6875 -208.125 L 236.6875 -76.609375 C 236.6875 -64.242188 238.046875 -56.515625 240.765625 -53.421875 C 244.472656 -49.335938 250.285156 -47.296875 258.203125 -47.296875 L 265.0625 -47.296875 L 265.0625 -41.734375 L 179.5625 -41.734375 L 179.5625 -47.296875 L 186.796875 -47.296875 C 195.328125 -47.296875 201.320312 -49.832031 204.78125 -54.90625 C 207.007812 -58.125 208.125 -65.359375 208.125 -76.609375 L 208.125 -211.09375 L 130.578125 -41.734375 Z M 125.578125 -41.734375 "/></g></g><g style="fill:#000000;fill-opacity:0.502;"><g transform="translate(30.103933, 289.09249)"><path style="stroke:none" d="M 125.578125 -41.734375 L 47.859375 -211.09375 L 47.859375 -76.609375 C 47.859375 -64.242188 49.21875 -56.515625 51.9375 -53.421875 C 55.519531 -49.335938 61.269531 -47.296875 69.1875 -47.296875 L 76.421875 -47.296875 L 76.421875 -41.734375 L 6.3125 -41.734375 L 6.3125 -47.296875 L 13.359375 -47.296875 C 21.890625 -47.296875 27.945312 -49.832031 31.53125 -54.90625 C 33.757812 -58.125 34.875 -65.359375 34.875 -76.609375 L 34.875 -208.125 C 34.875 -217.019531 33.882812 -223.445312 31.90625 -227.40625 C 30.414062 -230.25 27.816406 -232.628906 24.109375 -234.546875 C 20.398438 -236.460938 14.46875 -237.421875 6.3125 -237.421875 L 6.3125 -243 L 63.25 -243 L 136.34375 -85.515625 L 208.125 -243 L 265.0625 -243 L 265.0625 -237.421875 L 258.203125 -237.421875 C 249.546875 -237.421875 243.425781 -234.890625 239.84375 -229.828125 C 237.738281 -226.609375 236.6875 -219.375 236.6875 -208.125 L 236.6875 -76.609375 C 236.6875 -64.242188 238.046875 -56.515625 240.765625 -53.421875 C 244.472656 -49.335938 250.285156 -47.296875 258.203125 -47.296875 L 265.0625 -47.296875 L 265.0625 -41.734375 L 179.5625 -41.734375 L 179.5625 -47.296875 L 186.796875 -47.296875 C 195.328125 -47.296875 201.320312 -49.832031 204.78125 -54.90625 C 207.007812 -58.125 208.125 -65.359375 208.125 -76.609375 L 208.125 -211.09375 L 130.578125 -41.734375 Z M 125.578125 -41.734375 "/></g></g><g style="fill:#ffffff;fill-opacity:1;"><g transform="translate(24.652439, 283.640993)"><path style="stroke:none" d="M 125.578125 -41.734375 L 47.859375 -211.09375 L 47.859375 -76.609375 C 47.859375 -64.242188 49.21875 -56.515625 51.9375 -53.421875 C 55.519531 -49.335938 61.269531 -47.296875 69.1875 -47.296875 L 76.421875 -47.296875 L 76.421875 -41.734375 L 6.3125 -41.734375 L 6.3125 -47.296875 L 13.359375 -47.296875 C 21.890625 -47.296875 27.945312 -49.832031 31.53125 -54.90625 C 33.757812 -58.125 34.875 -65.359375 34.875 -76.609375 L 34.875 -208.125 C 34.875 -217.019531 33.882812 -223.445312 31.90625 -227.40625 C 30.414062 -230.25 27.816406 -232.628906 24.109375 -234.546875 C 20.398438 -236.460938 14.46875 -237.421875 6.3125 -237.421875 L 6.3125 -243 L 63.25 -243 L 136.34375 -85.515625 L 208.125 -243 L 265.0625 -243 L 265.0625 -237.421875 L 258.203125 -237.421875 C 249.546875 -237.421875 243.425781 -234.890625 239.84375 -229.828125 C 237.738281 -226.609375 236.6875 -219.375 236.6875 -208.125 L 236.6875 -76.609375 C 236.6875 -64.242188 238.046875 -56.515625 240.765625 -53.421875 C 244.472656 -49.335938 250.285156 -47.296875 258.203125 -47.296875 L 265.0625 -47.296875 L 265.0625 -41.734375 L 179.5625 -41.734375 L 179.5625 -47.296875 L 186.796875 -47.296875 C 195.328125 -47.296875 201.320312 -49.832031 204.78125 -54.90625 C 207.007812 -58.125 208.125 -65.359375 208.125 -76.609375 L 208.125 -211.09375 L 130.578125 -41.734375 Z M 125.578125 -41.734375 "/></g></g><g style="fill:#000000;fill-opacity:0.302;"><g transform="translate(141.585765, 382.239402)"><path style="stroke:none" d="M 6.5 -41.734375 L 6.5 -47.296875 L 14.09375 -47.296875 C 22.625 -47.296875 28.625 -50.019531 32.09375 -55.46875 C 34.3125 -58.675781 35.421875 -65.96875 35.421875 -77.34375 L 35.421875 -207.375 C 35.421875 -219.863281 34.0625 -227.71875 31.34375 -230.9375 C 27.382812 -235.257812 21.632812 -237.421875 14.09375 -237.421875 L 6.5 -237.421875 L 6.5 -243 L 88.484375 -243 C 118.523438 -243 141.367188 -239.566406 157.015625 -232.703125 C 172.660156 -225.835938 185.273438 -214.457031 194.859375 -198.5625 C 204.441406 -182.675781 209.234375 -164.285156 209.234375 -143.390625 C 209.234375 -115.441406 200.703125 -92.066406 183.640625 -73.265625 C 164.597656 -52.242188 135.535156 -41.734375 96.453125 -41.734375 Z M 64 -56.203125 C 76.488281 -53.484375 87 -52.125 95.53125 -52.125 C 118.53125 -52.125 137.570312 -60.191406 152.65625 -76.328125 C 167.75 -92.460938 175.296875 -114.320312 175.296875 -141.90625 C 175.296875 -169.726562 167.75 -191.644531 152.65625 -207.65625 C 137.570312 -223.664062 118.160156 -231.671875 94.421875 -231.671875 C 85.515625 -231.671875 75.375 -230.25 64 -227.40625 Z M 64 -56.203125 "/></g></g><g style="fill:#000000;fill-opacity:0.502;"><g transform="translate(136.134269, 376.78791)"><path style="stroke:none" d="M 6.5 -41.734375 L 6.5 -47.296875 L 14.09375 -47.296875 C 22.625 -47.296875 28.625 -50.019531 32.09375 -55.46875 C 34.3125 -58.675781 35.421875 -65.96875 35.421875 -77.34375 L 35.421875 -207.375 C 35.421875 -219.863281 34.0625 -227.71875 31.34375 -230.9375 C 27.382812 -235.257812 21.632812 -237.421875 14.09375 -237.421875 L 6.5 -237.421875 L 6.5 -243 L 88.484375 -243 C 118.523438 -243 141.367188 -239.566406 157.015625 -232.703125 C 172.660156 -225.835938 185.273438 -214.457031 194.859375 -198.5625 C 204.441406 -182.675781 209.234375 -164.285156 209.234375 -143.390625 C 209.234375 -115.441406 200.703125 -92.066406 183.640625 -73.265625 C 164.597656 -52.242188 135.535156 -41.734375 96.453125 -41.734375 Z M 64 -56.203125 C 76.488281 -53.484375 87 -52.125 95.53125 -52.125 C 118.53125 -52.125 137.570312 -60.191406 152.65625 -76.328125 C 167.75 -92.460938 175.296875 -114.320312 175.296875 -141.90625 C 175.296875 -169.726562 167.75 -191.644531 152.65625 -207.65625 C 137.570312 -223.664062 118.160156 -231.671875 94.421875 -231.671875 C 85.515625 -231.671875 75.375 -230.25 64 -227.40625 Z M 64 -56.203125 "/></g></g><g style="fill:#ffffff;fill-opacity:1;"><g transform="translate(130.682772, 371.336414)"><path style="stroke:none" d="M 6.5 -41.734375 L 6.5 -47.296875 L 14.09375 -47.296875 C 22.625 -47.296875 28.625 -50.019531 32.09375 -55.46875 C 34.3125 -58.675781 35.421875 -65.96875 35.421875 -77.34375 L 35.421875 -207.375 C 35.421875 -219.863281 34.0625 -227.71875 31.34375 -230.9375 C 27.382812 -235.257812 21.632812 -237.421875 14.09375 -237.421875 L 6.5 -237.421875 L 6.5 -243 L 88.484375 -243 C 118.523438 -243 141.367188 -239.566406 157.015625 -232.703125 C 172.660156 -225.835938 185.273438 -214.457031 194.859375 -198.5625 C 204.441406 -182.675781 209.234375 -164.285156 209.234375 -143.390625 C 209.234375 -115.441406 200.703125 -92.066406 183.640625 -73.265625 C 164.597656 -52.242188 135.535156 -41.734375 96.453125 -41.734375 Z M 64 -56.203125 C 76.488281 -53.484375 87 -52.125 95.53125 -52.125 C 118.53125 -52.125 137.570312 -60.191406 152.65625 -76.328125 C 167.75 -92.460938 175.296875 -114.320312 175.296875 -141.90625 C 175.296875 -169.726562 167.75 -191.644531 152.65625 -207.65625 C 137.570312 -223.664062 118.160156 -231.671875 94.421875 -231.671875 C 85.515625 -231.671875 75.375 -230.25 64 -227.40625 Z M 64 -56.203125 "/></g></g></g></svg>